<svg id="Layer_1" data-name="Layer 1" xmlns="http://www.w3.org/2000/svg" viewBox="0 0 28.46 25.99"><defs><style>.cls-1{fill:none;stroke:#000;stroke-miterlimit:10;}</style></defs><path d="M24.49,23.12v-.24c.54-.07.56-.12.55-1.05V18.29c-.54,1.59-1.4,4.07-1.63,4.83h-.17C23,22.33,22.3,20,21.8,18.38c-.11,3-.12,3.72-.12,3.88,0,.49.17.56.62.62v.24H20.75v-.24c.38-.05.54-.16.59-.62s0-.7.21-3.87c0-.45,0-.6-.61-.67v-.24h1.13l1.44,4.4,1.55-4.4H26.2v.24c-.56.09-.63.17-.62.78l0,3.33c0,.93,0,1,.61,1.05v.24Z" transform="translate(-3.28 -4.17)"/><line class="cls-1" y1="19.42" x2="28.46" y2="19.42"/><path class="cls-1" d="M4.93,24c0-5.83,5.63-10.57,12.58-10.57S30.09,18.15,30.09,24" transform="translate(-3.28 -4.17)"/><line class="cls-1" x1="14.23" y1="4.31" x2="14.23" y2="25.99"/><polygon points="11.24 5.18 14.23 0 17.22 5.18 11.24 5.18"/><path d="M13.5,21.76c-.05.22-.28,1.11-.37,1.36H9v-.24c.8-.06.86-.14.86-.84v-3.4c0-.77-.1-.81-.74-.87v-.24H11.7c.81,0,1.15,0,1.25,0,0,.22,0,.86.08,1.32l-.26,0a3.23,3.23,0,0,0-.26-.65c-.14-.29-.34-.35-.85-.35h-.82c-.27,0-.28,0-.28.28v1.9h.95c.65,0,.69-.13.79-.71h.27v1.77H12.3c-.11-.62-.18-.71-.8-.71h-.94v1.72c0,.6.19.65.62.66H12c.52,0,.61-.08.8-.3a4,4,0,0,0,.46-.79Z" transform="translate(-3.28 -4.17)"/></svg>